# xmcd
#
# Track frame offsets:
#	150
#	2316
#	9403
#	14621
#	19265
#	24122
#	29240
#	34630
#	40008
#	45008
#	50657
#	56118
#	61763
#	67529
#	73134
#	78472
#	84291
#	88925
#	94418
#	99160
#	104444
#	110021
#	115231
#	120717
#	125204
#	128946
#	133359
#	138161
#	144023
#	148908
#	153891
#	158794
#	164469
#	169100
#	174275
#	178891
#	184175
#	189585
#	194324
#	199580
#	203595
#	208511
#	213748
#	218146
#	223597
#	228665
#	234295
#	236792
#	248013
#	251958
#	261883
#	272275
#	282322
#	292278
#
# Disc length: 4043 seconds
#
# Revision: 0
# Processed by: cddbd v1.5.2PL0 Copyright (c) Steve Scherf et al.
# Submitted via: EasyCDDAExtractor 10.0.3.1
#
DISCID=140fc936
DTITLE=吳澤華子 - 日本語發音知惠袋
DYEAR=2006
DGENRE=Conversation
TTITLE0=日本語発音知恵袋
TTITLE1=五十音
TTITLE2=あア
TTITLE3=いイ
TTITLE4=うウ
TTITLE5=えエ
TTITLE6=おオ
TTITLE7=かカ
TTITLE8=きキ
TTITLE9=くク
TTITLE10=けケ
TTITLE11=こコ
TTITLE12=さサ
TTITLE13=しシ
TTITLE14=すス
TTITLE15=せセ
TTITLE16=そソ
TTITLE17=たタ
TTITLE18=ちチ
TTITLE19=つツ
TTITLE20=てテ
TTITLE21=とト
TTITLE22=なナ
TTITLE23=にニ
TTITLE24=ぬヌ
TTITLE25=ねネ
TTITLE26=のノ
TTITLE27=はハ
TTITLE28=ひヒ
TTITLE29=ふフ
TTITLE30=へヘ
TTITLE31=ほホ
TTITLE32=まマ
TTITLE33=みミ
TTITLE34=むム
TTITLE35=めメ
TTITLE36=もモ
TTITLE37=やヤ
TTITLE38=ゆユ
TTITLE39=よヨ
TTITLE40=らラ
TTITLE41=りリ
TTITLE42=るル
TTITLE43=れレ
TTITLE44=ろロ
TTITLE45=わワ
TTITLE46=をヲ
TTITLE47=んン
TTITLE48=濁音・半濁音
TTITLE49=がガ行
TTITLE50=ざザ行
TTITLE51=だダ行
TTITLE52=ばバ行
TTITLE53=ぱパ行
EXTD=
EXTT0=
EXTT1=
EXTT2=
EXTT3=
EXTT4=
EXTT5=
EXTT6=
EXTT7=
EXTT8=
EXTT9=
EXTT10=
EXTT11=
EXTT12=
EXTT13=
EXTT14=
EXTT15=
EXTT16=
EXTT17=
EXTT18=
EXTT19=
EXTT20=
EXTT21=
EXTT22=
EXTT23=
EXTT24=
EXTT25=
EXTT26=
EXTT27=
EXTT28=
EXTT29=
EXTT30=
EXTT31=
EXTT32=
EXTT33=
EXTT34=
EXTT35=
EXTT36=
EXTT37=
EXTT38=
EXTT39=
EXTT40=
EXTT41=
EXTT42=
EXTT43=
EXTT44=
EXTT45=
EXTT46=
EXTT47=
EXTT48=
EXTT49=
EXTT50=
EXTT51=
EXTT52=
EXTT53=
PLAYORDER=
